Coordinates
version=1
nRows=25
nColumns=33
inDegrees=yes

Units are S.I. units (second, meters, Newtons, ...)
Angles are in degrees.

endheader
time	ground_thorax_rot_x	ground_thorax_rot_y	ground_thorax_rot_z	ground_thorax_tx	ground_thorax_ty	ground_thorax_tz	clav_prot_r	clav_elev_r	scapula_abduction_r	scapula_elevation_r	scapula_upward_rot_r	scapula_winging_r	shoulder_elv_r	plane_of_elev_r	axial_rot_r	elbow_flexion_r	pro_sup_r	wrist_flex_r	wrist_dev_r	clav_prot_l	clav_elev_l	scapula_abduction_l	scapula_elevation_l	scapula_upward_rot_l	scapula_winging_l	shoulder_elv_l	plane_of_elev_l	axial_rot_l	elbow_flexion_l	pro_sup_l	wrist_flex_l	wrist_dev_l	
10.9800	-17.835172	-34.078062	56.469268	92.996007	770.318475	-39.248247	28.827352	-45.000000	39.712556	-45.000000	-45.000000	-3700.049351	-2627.753897	161.127422	41.985065	1789.728343	-27.367795	16.922151	0.468931	-1.189446	29.286163	-25.340964	-44.936027	-45.000000	-4961.975028	-645.788085	26.544846	52.668946	1070.024829	45.200062	12.293215	-14.218209	
10.9900	-17.962805	-33.920989	56.312594	92.742200	769.912795	-38.929165	28.716913	-45.000000	39.688968	-45.000000	-45.000000	-3700.154955	-2627.657034	161.077414	42.213789	1789.775771	-26.499649	16.829721	0.500412	-1.215017	29.226985	-25.373858	-44.877819	-45.000000	-4961.901517	-645.763656	26.548038	52.463309	1070.023454	45.101983	12.270600	-14.309232	
11.0000	-18.088135	-33.765713	56.167895	92.422343	769.514878	-38.612579	28.545269	-45.000000	39.660334	-45.000000	-45.000000	-3700.295605	-2627.576877	161.009266	42.422524	1789.847749	-25.120146	16.743220	0.576638	-1.251459	29.120298	-25.384021	-44.836627	-45.000000	-4961.867657	-645.717762	26.536347	52.240003	1069.992150	44.972576	12.201782	-14.460526	
11.0100	-18.235682	-33.620441	55.987451	91.955414	769.134128	-38.301060	28.469175	-45.000000	39.647514	-45.000000	-45.000000	-3700.371325	-2627.502960	160.981562	42.645314	1789.976370	-22.770128	16.618050	0.673443	-1.261858	29.070916	-25.410752	-44.823868	-45.000000	-4961.815613	-645.703657	26.526571	52.084745	1069.991435	44.804119	12.175758	-14.548336	
11.0200	-18.397771	-33.484843	55.789552	91.336347	768.772058	-37.996131	28.435777	-45.000000	39.641135	-45.000000	-45.000000	-3700.418654	-2627.438159	160.977953	42.890234	1790.183096	-18.951634	16.444662	0.833145	-1.261814	29.057474	-25.435279	-44.837005	-45.000000	-4961.760886	-645.700957	26.517278	51.963805	1070.005858	44.586078	12.172682	-14.597715	
11.0300	-18.569169	-33.358108	55.579733	90.549461	768.431800	-37.700569	28.435334	-45.000000	39.642615	-45.000000	-45.000000	-3700.450617	-2627.389002	160.992933	43.151714	1790.561546	-12.162996	16.191063	1.171181	-1.251401	29.062026	-25.449106	-44.874673	-45.000000	-4961.717625	-645.700363	26.500548	51.853474	1070.021367	44.292101	12.167277	-14.640614	
11.0400	-18.749254	-33.232620	55.359500	89.598235	768.114781	-37.416507	28.457757	-45.000000	39.644534	-45.000000	-45.000000	-3700.477146	-2627.343956	161.030322	43.435834	1791.155304	-1.555961	15.821347	1.735251	-1.237291	29.104278	-25.458550	-44.916254	-45.000000	-4961.667572	-645.692859	26.487465	51.742272	1070.039101	43.933304	12.186963	-14.642568	
11.0500	-18.913886	-33.115053	55.160742	88.494341	767.821572	-37.146721	28.500946	-45.000000	39.655688	-45.000000	-45.000000	-3700.526406	-2627.328442	161.091054	43.690949	1792.392930	19.281152	15.180480	3.003962	-1.228711	29.164074	-25.452645	-44.959169	-45.000000	-4961.622159	-645.671460	26.462854	51.579210	1070.030965	43.419855	12.208492	-14.643379	
11.0600	-19.087872	-32.990003	54.950337	87.247302	767.552420	-36.893477	28.539059	-45.000000	39.660428	-45.000000	-45.000000	-3700.583405	-2627.323920	161.172202	43.906381	1794.133046	48.038843	14.333178	4.814921	-1.218220	29.248070	-25.460077	-44.986217	-45.000000	-4961.559472	-645.634291	26.439227	51.397428	1070.014622	42.863193	12.250251	-14.609706	
11.0700	-19.272597	-32.855826	54.722237	85.866386	767.306473	-36.659621	28.565350	-45.000000	39.663054	-45.000000	-45.000000	-3700.649529	-2627.330978	161.257514	44.047335	1796.264937	82.616234	13.359566	7.050040	-1.204606	29.323093	-25.486311	-45.000000	-45.000000	-4961.486114	-645.583587	26.409281	51.196376	1069.985743	42.325723	12.286406	-14.582532	
11.0800	-19.487730	-32.706013	54.452240	84.359417	767.081370	-36.447404	28.554585	-45.000000	39.651951	-45.000000	-45.000000	-3700.707778	-2627.316124	161.332464	44.146527	1798.214524	114.084418	12.503614	9.083468	-1.179399	29.396379	-25.545902	-45.000000	-45.000000	-4961.395963	-645.520131	26.378078	51.015721	1069.969355	41.973460	12.323168	-14.552057	
11.0900	-19.716140	-32.553522	54.161207	82.734239	766.873104	-36.259748	28.539001	-45.000000	39.641345	-45.000000	-45.000000	-3700.763244	-2627.286330	161.390490	44.211016	1799.930811	141.446556	11.798276	10.863773	-1.150224	29.458093	-25.623130	-45.000000	-45.000000	-4961.293913	-645.456593	26.340546	50.829203	1069.964020	41.768268	12.348556	-14.543985	
11.1000	-19.971302	-32.391721	53.833394	80.996359	766.676506	-36.099046	28.488639	-45.000000	39.619393	-45.000000	-45.000000	-3700.810973	-2627.218249	161.418385	44.292220	1800.972253	158.074891	11.417382	11.921804	-1.111288	29.505414	-25.719174	-45.000000	-45.000000	-4961.186013	-645.389601	26.300767	50.655152	1069.981878	41.787444	12.354032	-14.559083	
11.1100	-20.231689	-32.229070	53.492166	79.149322	766.486139	-35.967290	28.444729	-45.000000	39.600067	-44.999999	-45.000000	-3700.861295	-2627.120019	161.421412	44.403002	1801.451919	165.816048	11.295657	12.381960	-1.074781	29.544857	-25.819541	-44.999999	-45.000000	-4961.066502	-645.327461	26.260927	50.463898	1070.012892	41.932816	12.350892	-14.593887	
11.1200	-20.491440	-32.066828	53.147177	77.192444	766.297395	-35.864830	28.399079	-44.999999	39.580441	-44.999999	-45.000000	-3700.919198	-2626.995761	161.409434	44.555949	1801.454802	166.222345	11.379650	12.342081	-1.039614	29.588324	-25.917746	-44.999999	-45.000000	-4960.942124	-645.267460	26.218329	50.247480	1070.051217	42.149432	12.341874	-14.640172	
11.1300	-20.738972	-31.909586	52.811188	75.122948	766.107192	-35.790597	28.376793	-44.999999	39.567276	-44.999998	-45.000000	-3700.993338	-2626.874226	161.396112	44.720984	1801.458859	166.644327	11.460138	12.313857	-1.015852	29.637794	-26.004969	-44.999998	-45.000000	-4960.806794	-645.217144	26.178799	49.980376	1070.085863	42.302704	12.337028	-14.682119	
11.1400	-20.989824	-31.749438	52.463726	72.936671	765.914255	-35.741759	28.341798	-44.999997	39.549652	-44.999997	-45.000000	-3701.076549	-2626.756058	161.380630	44.885326	1801.462942	167.073768	11.540112	12.293428	-0.993551	29.683692	-26.089308	-44.999997	-45.000000	-4960.669279	-645.172027	26.141346	49.688046	1070.118377	42.434714	12.325553	-14.720329	
11.1500	-21.246545	-31.586731	52.098709	70.630692	765.718877	-35.714565	28.303236	-44.999995	39.528441	-44.999995	-45.000000	-3701.164166	-2626.643212	161.363157	45.037683	1801.468599	167.500909	11.617100	12.280876	-0.973358	29.721357	-26.170227	-44.999995	-45.000000	-4960.527864	-645.134641	26.108888	49.378901	1070.151172	42.569850	12.305309	-14.758618	
11.1600	-21.505862	-31.422856	51.722738	68.203875	765.522593	-35.704811	28.261859	-44.999992	39.504970	-44.999991	-45.000000	-3701.258843	-2626.535276	161.346558	45.175483	1801.473516	167.919097	11.690470	12.277708	-0.955366	29.756227	-26.248189	-44.999991	-45.000000	-4960.383573	-645.102336	26.076808	49.061759	1070.182241	42.723871	12.277648	-14.800225	
11.1700	-21.771062	-31.255553	51.330581	65.657981	765.327667	-35.709065	28.216121	-44.999985	39.477678	-44.999983	-45.000000	-3701.357121	-2626.432463	161.330382	45.297395	1801.478821	168.320700	11.759736	12.284071	-0.938668	29.781650	-26.323031	-44.999983	-45.000000	-4960.235603	-645.078029	26.048947	48.737712	1070.214467	42.905923	12.240003	-14.845375	
11.1800	-22.037170	-31.085201	50.929842	62.997076	765.136929	-35.725322	28.167604	-44.999973	39.448701	-44.999970	-45.000000	-3701.463393	-2626.334919	161.316077	45.409159	1801.483362	168.703100	11.825399	12.301322	-0.923995	29.807476	-26.393520	-44.999970	-45.000000	-4960.086642	-645.058851	26.021307	48.415921	1070.244080	43.121359	12.195854	-14.895747	
11.1900	-22.303431	-30.911560	50.522492	60.226787	764.953885	-35.753697	28.118748	-44.999952	39.417870	-44.999946	-45.000000	-3701.576650	-2626.242734	161.305398	45.513780	1801.486630	169.064448	11.888358	12.330148	-0.911786	29.834580	-26.460043	-44.999946	-45.000000	-4959.935319	-645.046740	25.993596	48.095954	1070.271537	43.371201	12.148172	-14.952945	
11.2000	-22.571895	-30.731761	50.106325	57.353312	764.783131	-35.796628	28.067827	-44.999915	39.383327	-44.999904	-45.000000	-3701.696410	-2626.157435	161.297650	45.615972	1801.487845	169.406773	11.950701	12.371944	-0.900834	29.866975	-26.522399	-44.999904	-45.000000	-4959.784705	-645.040052	25.965788	47.781454	1070.297313	43.651663	12.099095	-15.016232	
11.2100	-22.845519	-30.542004	49.677280	54.382777	764.630992	-35.858962	28.013999	-44.999847	39.343391	-44.999828	-45.000000	-3701.820678	-2626.078917	161.291907	45.718498	1801.487104	169.735281	12.015931	12.427735	-0.890520	29.900529	-26.580523	-44.999828	-45.000000	-4959.636569	-645.039453	25.940620	47.470414	1070.323203	43.954044	12.050035	-15.083142	
11.2200	-23.121500	-30.343406	49.240303	51.320373	764.506115	-35.947997	27.962339	-44.999726	39.298884	-44.999692	-45.000000	-3701.950781	-2626.005052	161.289623	45.830045	1801.481365	170.060264	12.089479	12.500018	-0.882780	29.941028	-26.631858	-44.999692	-45.000000	-4959.494340	-645.040437	25.915625	47.166979	1070.345108	44.265823	12.006384	-15.151350	
